<svg xmlns="http://www.w3.org/2000/svg" width="20" height="20" viewBox="0 0 20 19.956" fill="#fff">
  <g id="linkedin-svgrepo-com" transform="translate(0 -0.563)">
    <path id="Path_40" data-name="Path 40" d="M12.476,164.715H8.461a.323.323,0,0,0-.323.323v12.9a.323.323,0,0,0,.323.323h4.015a.323.323,0,0,0,.323-.323v-12.9A.323.323,0,0,0,12.476,164.715Z" transform="translate(-7.82 -157.74)"/>
    <path id="Path_41" data-name="Path 41" d="M2.649.563A2.647,2.647,0,1,0,5.3,3.21,2.651,2.651,0,0,0,2.649.563Z"/>
    <path id="Path_42" data-name="Path 42" d="M183.38,156.508a4.716,4.716,0,0,0-3.528,1.481v-.838a.323.323,0,0,0-.323-.323h-3.845a.323.323,0,0,0-.323.323v12.9a.323.323,0,0,0,.323.323h4.006a.323.323,0,0,0,.323-.323v-6.382c0-2.15.584-2.988,2.083-2.988,1.633,0,1.762,1.343,1.762,3.1v6.271a.323.323,0,0,0,.323.323h4.008a.323.323,0,0,0,.323-.323v-7.075C188.512,159.777,187.9,156.508,183.38,156.508Z" transform="translate(-168.512 -149.853)"/>
  </g>
</svg>
