<svg id="Layer_1" data-name="Layer 1" xmlns="http://www.w3.org/2000/svg" viewBox="0 0 4395.21 1935"><defs><style>.cls-1,.cls-2{fill:#fcfcfc;}.cls-2,.cls-3{fill-rule:evenodd;}</style></defs><path class="cls-1" d="M1862,590h271.37v58.34h-207.3v99.48H2110v58.33H1926.09V954.58H1862V590Zm428.2,0h64.06V896.24H2546v58.34H2290.22V590Zm408.93,0h270.32v57.3H2763.21v94.78H2946v57.29H2763.21v97.92h208.86v57.3H2699.15V590Zm585,370.32q-35.43,0-64.07-10.16a129.26,129.26,0,0,1-49-30.47q-20.31-20.31-31.25-50.26t-10.94-69.53V590H3193v207.3q0,51,24.48,77.6t67.71,26.57q42.69,0,67.19-25.53t24.47-76V590h64.07V796.76q0,40.62-11.19,71.35t-31.52,51.31Q3377.88,940,3349,950.15t-64.83,10.16Zm489.13-189.59q34.38,0,54.69-16.4t20.31-44.54v-1q0-29.68-19.79-45.06t-55.74-15.35h-93.22V770.72ZM3615.44,590H3778q34.37,0,60.94,9.63t44.26,26.83a105.71,105.71,0,0,1,22.41,34.89q7.8,19.8,7.81,43.75v1q0,22.39-6.51,40.38a106.27,106.27,0,0,1-18,31.77,108.39,108.39,0,0,1-27.35,23.43,136.05,136.05,0,0,1-35.15,14.85l98.44,138H3849.3l-89.58-127.09h-80.21V954.58h-64.07V590Zm570.39,220.84L4041,590h75.53l102.08,161.46L4321.76,590h73.45l-144.8,219.27V954.58h-64.58Z"/><path class="cls-1" d="M2101.89,1146.51a57.79,57.79,0,0,0,17.08-2.39,39.68,39.68,0,0,0,13.28-6.86,30.39,30.39,0,0,0,8.49-10.56,31.29,31.29,0,0,0,2.94-13.72v-.43q0-16.3-11.21-24.7t-29.71-8.38h-38.53v67ZM2047,1063.58h57a76.9,76.9,0,0,1,23.4,3.37,53.67,53.67,0,0,1,18.06,9.58,41.46,41.46,0,0,1,11.54,15.13,48.6,48.6,0,0,1,4,20.24v.43q0,12.42-4.79,21.67a46.47,46.47,0,0,1-13,15.56,56.54,56.54,0,0,1-19,9.47,82.54,82.54,0,0,1-23.07,3.15h-37V1216H2047V1063.58Zm181.57,0h17.2v67.7h87.93v-67.7h17.2V1216h-17.2v-68.57H2245.8V1216h-17.2V1063.58Zm272.77,139.1a58.53,58.53,0,0,0,24.05-4.9,56.7,56.7,0,0,0,18.82-13.4,62.71,62.71,0,0,0,12.31-19.8,66,66,0,0,0,4.45-24.38v-.44a66.81,66.81,0,0,0-4.45-24.48,60.09,60.09,0,0,0-31.57-33.42,57.29,57.29,0,0,0-24.05-5,58.34,58.34,0,0,0-24,4.91,56.69,56.69,0,0,0-18.83,13.38,63,63,0,0,0-12.3,19.81,65.74,65.74,0,0,0-4.46,24.38v.43a66.71,66.71,0,0,0,4.46,24.5,60.05,60.05,0,0,0,31.56,33.41,57.49,57.49,0,0,0,24.06,5Zm-.44,15.88a77.41,77.41,0,0,1-31.68-6.31,75,75,0,0,1-40.26-42.12,82,82,0,0,1-5.55-29.93v-.44a81.37,81.37,0,0,1,5.66-30A79,79,0,0,1,2533,1067.28a75,75,0,0,1,40.26,42.12,81.79,81.79,0,0,1,5.55,29.93.26.26,0,0,1,0,.43,81.18,81.18,0,0,1-5.66,30,76.23,76.23,0,0,1-72.26,48.75Zm190.71-139.09h-51.15v-15.89h119.72v15.89h-51.15V1216h-17.42V1079.47Zm208.12,123.21a58.53,58.53,0,0,0,24-4.9,56.6,56.6,0,0,0,18.82-13.4,62.71,62.71,0,0,0,12.31-19.8,66,66,0,0,0,4.46-24.38v-.44a66.81,66.81,0,0,0-4.46-24.48,60,60,0,0,0-31.56-33.42,57.37,57.37,0,0,0-24.06-5,58.34,58.34,0,0,0-24.05,4.91,56.55,56.55,0,0,0-18.82,13.38,62.87,62.87,0,0,0-12.31,19.81,65.94,65.94,0,0,0-4.46,24.38v.43a66.92,66.92,0,0,0,4.46,24.5,60,60,0,0,0,31.57,33.41,57.44,57.44,0,0,0,24.05,5Zm-.44,15.88a77.37,77.37,0,0,1-31.67-6.31,75,75,0,0,1-40.27-42.12,82,82,0,0,1-5.55-29.93v-.44a81.37,81.37,0,0,1,5.66-30,79,79,0,0,1,103.94-42.44,75,75,0,0,1,40.27,42.12,82,82,0,0,1,5.55,29.93.27.27,0,0,1,0,.43,81.19,81.19,0,0,1-5.67,30,76.23,76.23,0,0,1-72.26,48.75Zm221.19,0q-18.08,0-32.33-6.09a71.78,71.78,0,0,1-39.83-41.69,86.5,86.5,0,0,1-5.34-30.58v-.44a81.84,81.84,0,0,1,5.56-29.93,78.84,78.84,0,0,1,15.56-25.13,73.58,73.58,0,0,1,55.29-23.73,108.34,108.34,0,0,1,17.51,1.3,76,76,0,0,1,14.8,3.93,70.78,70.78,0,0,1,12.86,6.41,106.94,106.94,0,0,1,11.64,8.6l-11.1,13.06a78.38,78.38,0,0,0-9.14-7.07,60.84,60.84,0,0,0-10.35-5.44,63.51,63.51,0,0,0-12.19-3.59,75.38,75.38,0,0,0-14.69-1.32,54,54,0,0,0-23.28,5,56.68,56.68,0,0,0-18.3,13.5,63.33,63.33,0,0,0-12,19.92,67.23,67.23,0,0,0-4.35,24v.43a72.52,72.52,0,0,0,4.24,25.25,59.65,59.65,0,0,0,12.08,20,55.13,55.13,0,0,0,19,13.28,62.59,62.59,0,0,0,25,4.79,67.47,67.47,0,0,0,24.59-4.47,72.24,72.24,0,0,0,19.38-10.76V1150h-46.37v-15.46h62.9v60.73a98,98,0,0,1-26.22,16.44q-15.55,6.84-34.93,6.85Zm200.06-77.27a53.81,53.81,0,0,0,15.67-2.18,38,38,0,0,0,12.41-6.2,27.91,27.91,0,0,0,11.1-23v-.43q0-14.16-10.23-22.09t-28.73-8h-47v61.82Zm-64-77.71h65.52a73.2,73.2,0,0,1,25.15,4,49.3,49.3,0,0,1,18.17,11.22,39,39,0,0,1,8.71,13.27,44.83,44.83,0,0,1,3.05,16.76v.44a45.2,45.2,0,0,1-3.05,17.09,38.94,38.94,0,0,1-8.6,13,46.05,46.05,0,0,1-13.18,9.15,64.4,64.4,0,0,1-16.53,5.12L3382.6,1216h-21.11l-44.18-59.21h-43.54V1216h-17.2V1063.58Zm292.37,96.64-34.61-77.71-34.83,77.71Zm-42.45-97.72h16.12L3592,1216h-18.5l-17.85-40.27h-82.93L3454.69,1216h-17.63l69.43-153.45Zm206.61,84a57.74,57.74,0,0,0,17.08-2.39,39.59,39.59,0,0,0,13.28-6.86,30.39,30.39,0,0,0,8.49-10.56,31.29,31.29,0,0,0,2.94-13.72v-.43q0-16.3-11.21-24.7t-29.71-8.38h-38.53v67Zm-54.86-82.93h57a76.85,76.85,0,0,1,23.4,3.37,53.72,53.72,0,0,1,18.07,9.58,41.33,41.33,0,0,1,11.53,15.13,48.6,48.6,0,0,1,4,20.24v.43q0,12.42-4.78,21.67a46.7,46.7,0,0,1-12.95,15.56,56.73,56.73,0,0,1-19.05,9.47,82.66,82.66,0,0,1-23.08,3.15h-37V1216h-17.2V1063.58Zm181.57,0H3857v67.7h87.93v-67.7h17.2V1216h-17.2v-68.57H3857V1216h-17.2V1063.58Zm249.26,92.08-63.34-92.08h20.9l51.36,76.18,51.81-76.18h20l-63.34,91.86V1216h-17.41Z"/><path class="cls-2" d="M382.81,1641.5,664.07,1935V1427.93q25.17,1.75,50.78,1.77c394.74,0,714.86-320.11,714.86-714.85,0-369.67-280.76-673.89-640.64-711v291.7c199.75,35.13,351.57,209.53,351.57,419.33,0,235.11-190.68,425.79-425.79,425.79-134.25,0-254-62.19-332-159.31V1641.5Z"/><path class="cls-3" d="M309.93,583c55.55-170.57,215.85-293.89,404.92-293.89V0C320.12,0,0,320.12,0,714.85,0,958.67,122.17,1174,308.59,1303V846.73H714.85V583Z"/></svg>